# xmcd
#
# Track frame offsets:
#	183
#	12310
#	25345
#	38653
#	53408
#	68398
#	82078
#	94780
#	106628
#	120245
#	133053
#	144990
#	158175
#	172838
#	188423
#	201855
#	213168
#	227948
#	242018
#	255793
#	269538
#	283113
#	297785
#	311090
#	325360
#
# Disc length: 4514 seconds
#
# Revision: 0
# Processed by: cddbd v1.4PL0 Copyright (c) Steve Scherf et al.
# Submitted via: dBpowerAMP V4.0
#
DISCID=4d11a019
DTITLE=Big Joe Turner - Joe Turner's Blues
DYEAR=1900
DGENRE=Blues
TTITLE0=Goin' Away Blues
TTITLE1=Roll 'Em Pete
TTITLE2=Cherry Red
TTITLE3=Lovin' Mama Blues
TTITLE4=How Long, How Long Blues
TTITLE5=Shake It and Break It
TTITLE6=Joe Turner Blues
TTITLE7=Beale Street Blues
TTITLE8=Piney Brown Blues
TTITLE9=Carless Love
TTITLE10=Jumpin' Down Blues
TTITLE11=Wee Baby Blues
TTITLE12=Last Goodbye Blues
TTITLE13=Lucille
TTITLE14=Rock Me Mama
TTITLE15=Corrine, Corrina
TTITLE16=Lonesome Graveyard
TTITLE17=It's the Same Old Story
TTITLE18=S.K. Blues, Pt. 1
TTITLE19=Johnson and Turner Blues
TTITLE20=Watch That Jive
TTITLE21=My Gal's a Jockey
TTITLE22=Sunday Morning Blues
TTITLE23=Still in the Dark
TTITLE24=Miss Brown Blues
EXTD=
EXTT0=
EXTT1=
EXTT2=
EXTT3=
EXTT4=
EXTT5=
EXTT6=
EXTT7=
EXTT8=
EXTT9=
EXTT10=
EXTT11=
EXTT12=
EXTT13=
EXTT14=
EXTT15=
EXTT16=
EXTT17=
EXTT18=
EXTT19=
EXTT20=
EXTT21=
EXTT22=
EXTT23=
EXTT24=
PLAYORDER=
